<?xml version="1.0" standalone="no"?>
<!DOCTYPE svg PUBLIC "-//W3C//DTD SVG 20010904//EN"
 "http://www.w3.org/TR/2001/REC-SVG-20010904/DTD/svg10.dtd">
<svg version="1.0" xmlns="http://www.w3.org/2000/svg"
 width="280.000000pt" height="280.000000pt" viewBox="0 0 280.000000 280.000000"
 preserveAspectRatio="xMidYMid meet">
<metadata>
Created by potrace 1.11, written by Peter Selinger 2001-2013
</metadata>
<g transform="translate(0.000000,280.000000) scale(0.100000,-0.100000)"
fill="#000000" stroke="none">
<path d="M1230 2790 c-315 -44 -571 -167 -792 -379 -217 -208 -346 -440 -410
-734 -31 -146 -31 -408 0 -554 59 -273 173 -490 361 -685 208 -217 440 -346
734 -410 146 -31 408 -31 554 0 294 64 526 193 734 410 188 195 302 412 361
685 18 83 22 135 22 277 0 142 -4 194 -22 277 -64 294 -193 526 -410 734 -194
187 -415 303 -680 359 -111 24 -350 34 -452 20z m378 -511 c408 -93 694 -456
694 -879 0 -505 -397 -902 -902 -902 -505 0 -902 397 -902 902 0 587 535 1011
1110 879z"/>
<path d="M1275 1793 c-121 -44 -196 -110 -249 -222 -29 -61 -31 -74 -31 -172
0 -101 1 -108 37 -181 45 -91 103 -147 196 -191 62 -30 75 -32 172 -32 97 0
110 2 172 32 93 44 151 100 196 191 36 73 37 80 37 182 0 102 -1 109 -37 182
-45 91 -104 148 -196 191 -57 26 -81 32 -157 34 -67 3 -103 -1 -140 -14z"/>
</g>
</svg>
